<svg width="20" height="20" viewBox="0 0 20 20" fill="none" xmlns="http://www.w3.org/2000/svg">
<g clip-path="url(#clip0_40_138)">
<path d="M17.7778 3.33331H2.22222C1.92754 3.33331 1.64492 3.45038 1.43655 3.65875C1.22817 3.86712 1.11111 4.14974 1.11111 4.44442V15.5555C1.11111 15.8502 1.22817 16.1328 1.43655 16.3412C1.64492 16.5496 1.92754 16.6666 2.22222 16.6666H17.7778C18.0725 16.6666 18.3551 16.5496 18.5635 16.3412C18.7718 16.1328 18.8889 15.8502 18.8889 15.5555V4.44442C18.8889 4.14974 18.7718 3.86712 18.5635 3.65875C18.3551 3.45038 18.0725 3.33331 17.7778 3.33331ZM16.9222 15.5555H3.14444L7.03333 11.5333L6.23333 10.7611L2.22222 14.9111V5.28887L9.12778 12.1611C9.33596 12.368 9.61757 12.4842 9.91111 12.4842C10.2047 12.4842 10.4863 12.368 10.6944 12.1611L17.7778 5.11665V14.8389L13.6889 10.75L12.9056 11.5333L16.9222 15.5555ZM2.95 4.44442H16.8778L9.91111 11.3722L2.95 4.44442Z" fill="#00FF88"/>
</g>
<defs>
<clipPath id="clip0_40_138">
<rect width="20" height="20" fill="white"/>
</clipPath>
</defs>
</svg>
