<svg width="20" height="20" viewBox="0 0 20 20" fill="none" xmlns="http://www.w3.org/2000/svg">
<g clip-path="url(#clip0_40_130)">
<path d="M1.66667 10C1.66667 5.40002 5.40001 1.66669 10 1.66669C14.6 1.66669 18.3333 5.40002 18.3333 10C18.3333 14.6 14.6 18.3334 10 18.3334C5.40001 18.3334 1.66667 14.6 1.66667 10Z" stroke="white" stroke-width="1.5" stroke-linecap="round" stroke-linejoin="round"/>
<path d="M7.19167 12.7584C9.00833 12.275 10.9333 12.475 12.6083 13.3334" stroke="white" stroke-width="1.5" stroke-linecap="round" stroke-linejoin="round"/>
<path d="M6.25 10.0584C7.16667 9.75004 8.15 9.58337 9.16667 9.58337C10.85 9.58337 12.4333 10.0417 13.7917 10.8334" stroke="white" stroke-width="1.5" stroke-linecap="round" stroke-linejoin="round"/>
<path d="M5.83334 7.42502C6.98334 6.93335 8.25001 6.66669 9.58334 6.66669C11.5917 6.66669 13.4583 7.28335 15 8.33335" stroke="white" stroke-width="1.5" stroke-linecap="round" stroke-linejoin="round"/>
</g>
<defs>
<clipPath id="clip0_40_130">
<rect width="20" height="20" fill="white"/>
</clipPath>
</defs>
</svg>
